<?xml version="1.0" standalone="no"?>
<!DOCTYPE svg PUBLIC "-//W3C//DTD SVG 20010904//EN"
 "http://www.w3.org/TR/2001/REC-SVG-20010904/DTD/svg10.dtd">
<svg version="1.0" xmlns="http://www.w3.org/2000/svg"
 width="500.000000pt" height="500.000000pt" viewBox="0 0 500.000000 500.000000"
 preserveAspectRatio="xMidYMid meet">
<metadata>
Created by potrace 1.11, written by Peter Selinger 2001-2013
</metadata>
<g transform="translate(0.000000,500.000000) scale(0.100000,-0.100000)"
fill="#000000" stroke="none">
<path d="M3637 4797 c-3 -8 0 -20 6 -27 9 -10 7 -11 -13 -6 -21 6 -22 5 -7 -4
13 -9 22 -9 32 0 10 8 14 8 18 -2 2 -7 8 -9 13 -5 5 4 2 12 -5 16 -8 5 -9 11
-3 15 12 7 25 -22 15 -36 -4 -7 -1 -8 7 -3 9 6 11 4 5 -5 -5 -8 -4 -11 2 -7 5
3 10 0 10 -8 0 -10 -6 -9 -25 6 -26 20 -47 26 -37 9 4 -6 -1 -7 -11 -3 -12 4
-15 3 -10 -6 4 -6 3 -18 -4 -26 -7 -9 -8 -15 0 -20 5 -3 10 -12 10 -18 0 -8
-3 -8 -8 -2 -4 6 -14 10 -22 10 -8 0 -18 3 -21 8 -3 5 -9 1 -12 -8 -4 -9 -3
-13 3 -10 6 3 10 2 10 -4 0 -6 8 -8 18 -5 16 5 16 5 -1 -6 -9 -6 -22 -8 -27
-5 -17 11 -11 -7 8 -22 15 -13 15 -13 -8 -8 -14 4 -20 3 -14 -2 6 -4 10 -23 9
-41 -1 -18 2 -35 7 -38 4 -3 8 -11 8 -17 0 -9 -2 -9 -8 0 -5 8 -13 9 -22 3 -8
-6 -10 -10 -4 -10 7 0 15 -7 18 -16 4 -10 2 -13 -6 -8 -8 5 -9 2 -5 -10 5 -11
3 -15 -5 -10 -8 5 -9 2 -5 -10 5 -14 3 -15 -13 -6 -30 16 -34 12 -9 -11 23
-19 23 -20 2 -10 -32 16 -40 13 -17 -5 19 -15 19 -15 -2 -11 -13 3 -21 -1 -21
-9 0 -7 4 -11 9 -8 5 3 7 -6 4 -20 -3 -16 0 -26 7 -26 6 0 2 -7 -10 -15 -13
-9 -20 -22 -17 -30 4 -8 1 -15 -6 -15 -6 0 -8 -5 -5 -10 4 -6 1 -9 -6 -8 -7 2
-13 -3 -14 -11 0 -8 -7 -16 -15 -18 -10 -3 -11 -2 -4 4 9 6 7 12 -4 23 -14 13
-15 12 -9 -3 4 -11 -1 -25 -15 -39 -16 -16 -17 -20 -5 -15 48 19 51 19 27 0
-19 -16 -30 -19 -45 -12 -20 10 -20 10 -1 -5 11 -9 16 -16 12 -16 -5 0 -3 -6
3 -14 9 -10 9 -16 1 -21 -8 -5 -7 -12 2 -23 12 -15 11 -16 -5 -3 -13 10 -15
17 -6 27 8 10 8 14 0 14 -6 0 -11 -5 -11 -11 0 -5 -4 -8 -9 -5 -5 4 -7 -3 -4
-14 3 -12 0 -20 -6 -20 -7 0 -10 4 -6 9 3 5 1 12 -4 16 -6 3 -8 -4 -6 -16 3
-16 1 -19 -13 -14 -14 5 -15 4 -4 -6 19 -21 14 -31 -10 -19 -22 11 -22 10 -4
-4 11 -9 24 -16 28 -16 5 0 3 -6 -4 -14 -11 -11 -15 -11 -25 3 -11 14 -12 13
-8 -6 2 -15 -1 -23 -10 -23 -8 0 -11 7 -8 19 3 10 1 21 -4 24 -4 3 -8 -8 -9
-24 -1 -16 3 -29 8 -29 5 0 0 -9 -11 -21 -11 -12 -25 -18 -31 -14 -9 6 -9 2
-1 -13 16 -30 14 -39 -4 -16 -14 18 -14 17 -5 -9 13 -36 12 -47 -1 -24 -12 21
-31 23 -23 2 4 -8 1 -15 -6 -15 -6 0 -9 -4 -5 -9 3 -5 0 -13 -7 -18 -19 -11
-39 -13 -32 -2 3 5 10 6 16 3 7 -5 8 -2 3 6 -6 9 -4 11 5 5 9 -5 11 -4 6 4 -6
8 -12 9 -20 2 -7 -6 -17 -7 -21 -3 -5 4 -5 1 -1 -5 4 -8 2 -13 -6 -13 -7 -1
-2 -7 12 -15 14 -8 19 -14 12 -15 -7 0 -10 -5 -6 -12 4 -7 3 -8 -5 -4 -6 4 -9
11 -7 15 3 4 -5 8 -17 8 -16 2 -18 0 -8 -7 12 -7 12 -11 2 -24 -8 -9 -10 -16
-6 -16 4 0 2 -7 -5 -15 -7 -8 -16 -13 -20 -10 -14 9 -40 -25 -33 -42 6 -15 5
-16 -9 -3 -9 8 -13 17 -9 20 3 3 7 12 9 20 1 10 -3 8 -13 -5 -9 -11 -21 -20
-28 -20 -7 0 -11 -10 -9 -23 2 -12 -2 -22 -8 -22 -6 0 -8 5 -4 12 4 7 3 8 -5
4 -8 -5 -9 -12 -2 -20 8 -9 3 -12 -17 -10 -32 2 -60 -21 -36 -30 8 -3 13 -2
10 3 -9 14 26 23 38 10 8 -9 8 -10 0 -6 -7 4 -17 0 -24 -8 -7 -8 -16 -12 -21
-9 -5 3 -9 1 -9 -5 0 -5 3 -11 8 -14 4 -2 2 -2 -5 -1 -6 2 -14 -2 -17 -9 -3
-7 -4 -3 -1 9 6 24 -19 52 -30 34 -4 -6 -1 -9 6 -8 21 5 20 -19 -1 -25 -12 -3
-24 -15 -27 -27 -4 -14 -12 -20 -23 -17 -9 2 -28 -1 -41 -8 l-24 -13 27 1 c14
1 23 6 20 12 -3 6 2 4 11 -4 23 -18 22 -20 -9 -15 -14 3 -23 1 -20 -4 3 -5 -6
-7 -19 -4 -31 5 -60 -15 -45 -33 13 -15 3 -25 -18 -18 -11 5 -13 3 -7 -7 6
-10 4 -11 -6 -4 -8 5 -25 9 -39 9 -14 0 -25 5 -25 10 0 6 4 9 10 7 5 -2 6 0 2
5 -5 4 -14 8 -20 8 -7 1 -11 7 -9 15 2 8 0 11 -5 7 -4 -5 -8 -14 -8 -19 0 -6
-6 -12 -13 -14 -7 -1 -8 0 -2 3 7 3 7 11 0 24 -6 10 -7 19 -3 19 4 0 1 5 -7
10 -10 6 -11 10 -3 10 15 0 13 21 -2 32 -6 5 -6 8 2 8 16 0 10 27 -10 51 -16
18 -16 20 -1 17 10 -2 18 4 20 15 2 15 0 16 -12 6 -12 -10 -17 -10 -27 0 -9
10 -8 11 6 6 10 -4 17 -2 17 4 0 10 -14 15 -32 12 -5 0 -8 4 -8 10 0 6 6 9 13
6 6 -3 20 -8 30 -12 10 -4 17 -3 17 4 0 6 -3 10 -7 10 -23 -4 -31 3 -28 21 2
11 0 18 -6 15 -15 -10 -10 29 8 55 l17 25 -22 -19 c-18 -16 -25 -17 -35 -7 -9
10 -8 11 7 5 16 -6 17 -4 8 13 -8 14 -8 23 -1 30 8 8 7 13 -2 18 -8 6 -10 4
-4 -4 5 -10 2 -9 -13 0 -12 7 -18 17 -16 21 3 4 0 8 -7 8 -7 0 -9 3 -5 7 4 5
13 0 20 -9 8 -11 17 -14 27 -7 12 7 11 9 -3 9 -9 0 -18 5 -20 10 -2 6 -14 12
-27 15 -13 2 -26 6 -28 9 -8 8 51 1 65 -8 11 -7 11 -4 1 13 -9 13 -16 16 -20
9 -4 -7 -13 -3 -25 10 -21 25 -26 49 -12 59 6 3 8 1 5 -4 -4 -6 0 -13 8 -16
12 -5 12 -2 3 18 -8 19 -14 22 -24 14 -11 -9 -11 -5 -4 20 5 17 7 32 4 32 -2
1 -7 2 -11 3 -5 1 -17 7 -28 15 -14 8 -15 11 -3 7 16 -5 34 21 23 32 -3 3 -5
0 -5 -6 0 -7 -5 -12 -11 -12 -5 0 -7 5 -3 12 5 7 2 9 -9 5 -9 -3 -18 -1 -20 6
-6 18 12 49 25 41 7 -5 8 -2 4 5 -6 9 -13 8 -29 -6 -12 -10 -19 -14 -15 -9 4
5 3 15 -4 23 -8 11 -7 12 5 7 26 -10 5 56 -25 75 -16 10 -15 6 7 -23 24 -31
25 -36 10 -36 -10 0 -15 3 -12 6 9 9 -12 46 -23 39 -14 -9 -4 26 11 36 10 8 8
9 -8 4 -14 -4 -23 -2 -23 5 0 6 -5 8 -12 4 -7 -4 -8 -3 -4 4 4 6 13 9 21 5 8
-3 15 0 15 7 0 6 -5 8 -12 4 -8 -5 -9 -2 -4 11 6 16 4 16 -11 4 -15 -12 -16
-12 -10 4 8 20 -1 47 -15 47 -6 0 -6 -6 1 -14 8 -10 9 -16 1 -21 -6 -4 -9 -1
-8 7 2 7 -4 12 -12 10 -12 -3 -13 -1 -3 9 15 15 17 43 3 34 -5 -3 -10 2 -10
11 0 16 -1 16 -16 -2 -8 -10 -12 -12 -8 -4 4 8 13 22 21 31 11 13 11 16 -2 16
-8 0 -11 -5 -8 -11 4 -6 0 -5 -9 2 -13 10 -17 10 -21 0 -3 -7 -5 -4 -4 7 2 11
6 26 10 33 8 11 2 16 -15 13 -5 0 -8 4 -8 9 0 6 8 10 18 10 14 0 15 2 2 10
-17 11 -32 -7 -25 -31 3 -9 -1 -16 -9 -16 -8 0 -12 6 -8 15 3 10 1 13 -6 8 -7
-4 -12 -2 -12 3 0 6 5 11 10 11 6 0 10 5 10 10 0 20 -20 9 -26 -14 -4 -17 -11
-23 -25 -21 -10 2 -21 -1 -25 -6 -3 -5 0 -8 8 -7 9 2 13 -9 12 -39 -1 -24 3
-43 8 -43 5 0 6 -5 2 -12 -5 -7 -2 -9 9 -5 11 4 14 2 10 -8 -3 -8 -9 -12 -14
-9 -5 3 -6 -2 -3 -11 5 -13 9 -13 22 -3 13 12 14 11 2 -9 -8 -12 -17 -20 -20
-18 -3 2 -6 -9 -5 -25 0 -15 3 -26 7 -23 5 2 8 -1 8 -6 0 -6 -5 -11 -12 -11
-6 0 -8 -3 -5 -6 4 -4 13 -1 21 5 11 9 16 9 22 0 4 -8 3 -9 -4 -5 -7 4 -12 3
-12 -3 0 -5 5 -13 10 -16 16 -10 2 -25 -16 -18 -13 5 -13 7 -2 14 9 6 9 9 1 9
-16 0 -26 -17 -13 -25 6 -4 8 -11 4 -16 -3 -5 -10 -6 -16 -3 -7 4 -8 2 -4 -5
6 -9 11 -9 21 -1 9 8 14 6 19 -5 3 -9 2 -13 -3 -10 -5 3 -12 1 -16 -5 -5 -9 6
-14 26 -12 3 1 6 -5 6 -13 0 -8 -3 -12 -7 -10 -3 2 -12 0 -20 -6 -11 -6 -12
-9 -2 -9 7 0 10 -5 7 -10 -4 -6 -10 -8 -15 -5 -5 3 -11 2 -14 -3 -7 -12 26
-11 42 1 7 6 5 -3 -5 -21 -10 -17 -21 -28 -26 -25 -5 3 -3 9 4 14 10 6 10 9 2
9 -16 0 -26 -17 -13 -25 15 -9 12 -28 -2 -19 -10 6 -10 4 0 -7 14 -15 17 -33
4 -25 -5 3 -9 -1 -9 -9 0 -20 7 -19 23 3 10 14 15 15 26 4 11 -11 10 -12 -4
-7 -17 7 -20 -9 -6 -31 4 -6 1 -11 -7 -11 -8 0 -11 5 -8 10 3 6 1 7 -5 3 -6
-4 -9 -13 -6 -21 4 -8 11 -12 16 -9 6 4 8 1 6 -7 -3 -8 -10 -13 -16 -12 -12 3
-10 -23 3 -34 4 -5 5 -1 0 7 -5 8 -4 12 0 7 14 -13 13 -84 -1 -84 -7 0 -10 5
-6 11 12 19 10 35 -4 47 -10 8 -14 8 -14 0 0 -6 4 -11 9 -11 11 0 9 -19 -2
-38 -5 -7 -13 -9 -19 -6 -7 4 -8 2 -4 -5 4 -6 11 -9 16 -6 15 10 28 -27 20
-57 -8 -26 -6 -32 13 -29 4 0 7 -3 7 -9 0 -13 -11 -12 -32 4 -14 10 -15 15 -5
26 8 9 8 11 0 6 -6 -3 -13 0 -16 6 -3 11 -2 -55 2 -102 1 -13 2 -13 11 0 9 14
10 12 10 -15 0 -3 -3 -5 -6 -4 -13 2 -20 -22 -19 -60 1 -30 -2 -38 -13 -34
-10 4 -10 8 -2 13 8 5 7 9 -3 13 -10 4 -14 0 -12 -11 1 -9 -3 -21 -9 -25 -7
-6 -4 -7 6 -3 10 3 20 0 24 -6 5 -7 3 -8 -5 -3 -9 5 -12 0 -10 -16 4 -32 -8
-49 -29 -43 -14 5 -15 4 -2 -5 8 -6 24 -8 35 -5 17 4 17 3 4 -5 -9 -6 -15 -21
-14 -35 2 -19 -4 -27 -26 -36 -16 -7 -29 -16 -29 -21 0 -12 17 -12 22 0 2 4
12 -1 23 -12 20 -20 20 -20 -4 -7 -21 11 -23 10 -18 -4 5 -14 3 -15 -13 -6
-13 7 -21 7 -25 0 -4 -6 -11 -7 -17 -4 -5 4 -2 -5 7 -20 20 -30 14 -34 -12 -8
-10 9 -17 15 -16 13 2 -2 -2 -10 -8 -17 -7 -8 -6 -14 2 -20 8 -4 9 -3 5 4 -4
7 -3 12 3 12 20 0 19 -16 -1 -29 -11 -7 -18 -9 -15 -4 3 5 -3 14 -13 21 -14 9
-21 9 -26 0 -4 -6 -3 -8 4 -4 6 3 13 2 17 -4 3 -5 1 -10 -4 -10 -6 0 -11 -5
-11 -11 0 -5 4 -8 9 -5 11 7 8 -21 -4 -31 -4 -4 -5 -2 -1 5 10 17 -4 15 -28
-5 -17 -15 -18 -15 -8 -2 10 14 10 18 -3 22 -8 4 -14 1 -12 -5 1 -6 -4 -13
-12 -16 -8 -2 -11 0 -8 5 3 5 0 10 -7 10 -8 0 -12 -8 -9 -21 4 -17 3 -18 -6
-6 -6 8 -11 11 -11 7 0 -4 -10 -3 -21 4 -12 6 -19 7 -15 1 9 -14 -30 -45 -46
-36 -7 5 -5 -5 6 -21 10 -17 13 -24 5 -17 -15 14 -43 17 -35 3 4 -5 -3 -7 -15
-4 -16 5 -18 8 -7 15 10 8 10 9 -2 5 -8 -2 -15 -10 -15 -18 0 -8 -4 -15 -10
-16 -5 -1 -9 4 -7 12 1 7 -2 16 -8 20 -5 3 -7 0 -4 -8 4 -11 -2 -14 -20 -12
-14 2 -26 -2 -26 -8 0 -5 -3 -7 -6 -4 -4 3 -15 2 -26 -4 -15 -8 -23 -7 -34 8
-14 17 -14 16 -4 -5 11 -22 10 -23 -12 -18 -12 3 -17 3 -10 0 6 -3 9 -10 6
-16 -3 -5 8 -2 25 7 17 9 37 13 43 9 6 -4 8 -3 5 3 -3 5 -1 10 6 10 7 0 19 4
28 7 10 4 16 2 16 -7 0 -9 -7 -12 -19 -9 -11 2 -20 -2 -24 -13 -5 -13 -9 -14
-15 -4 -10 17 -20 8 -22 -19 0 -11 -5 -19 -9 -16 -4 3 -4 12 -1 20 5 14 3 15
-15 5 -11 -6 -22 -14 -24 -18 -3 -5 -3 -2 -2 4 2 7 -5 17 -16 23 -25 13 -40
12 -17 -1 18 -11 14 -29 -6 -29 -7 0 -6 4 3 10 13 8 13 10 -2 10 -9 0 -19 -4
-22 -9 -6 -9 -81 -9 -91 1 -3 3 8 4 24 3 27 -2 29 0 20 16 -11 22 -21 25 -13
5 4 -10 0 -13 -13 -11 -10 1 -25 -6 -34 -18 -16 -19 -39 -17 -39 5 0 6 7 5 18
-3 15 -13 16 -12 3 3 -11 15 -17 16 -35 6 -11 -7 -24 -11 -28 -10 -4 1 -5 -6
-2 -16 5 -15 4 -15 -8 -2 -21 23 -39 23 -67 -2 -14 -13 -19 -15 -12 -5 15 20
2 23 -18 5 -11 -10 -12 -10 -7 -1 4 7 2 21 -4 30 -10 17 -10 17 -8 -1 2 -14
-4 -19 -24 -22 -16 -1 -28 2 -28 7 0 6 6 7 13 3 10 -6 1 6 -32 46 -2 3 -1 -3
2 -12 4 -12 1 -18 -9 -18 -9 0 -12 -5 -8 -12 5 -7 3 -8 -6 -3 -10 6 -12 4 -7
-8 9 -24 0 -21 -14 4 -9 17 -8 20 2 14 8 -6 10 -4 5 4 -9 13 -21 6 -21 -12 0
-5 -7 -12 -15 -14 -9 -3 -11 -1 -5 4 12 10 16 43 5 43 -4 0 -10 -9 -13 -21 -6
-21 -27 -18 -27 4 0 7 4 6 11 -3 7 -10 9 -11 7 -2 -2 8 -7 13 -11 13 -4 -1
-16 -1 -28 -1 -13 0 -18 -4 -13 -12 4 -7 3 -8 -5 -4 -9 6 -9 11 -1 21 14 17
-7 25 -37 14 -13 -5 -25 -4 -28 2 -4 5 -11 7 -16 4 -5 -4 -9 2 -9 11 0 16 1
16 20 -1 24 -22 27 -11 4 13 -15 15 -18 14 -37 -8 -15 -18 -18 -20 -14 -6 6
14 3 17 -8 12 -10 -4 -14 -2 -9 5 4 8 -1 9 -17 4 -21 -7 -22 -6 -11 8 10 12
10 17 1 23 -8 4 -9 3 -5 -4 11 -17 -5 -15 -26 4 -14 13 -21 14 -32 5 -8 -7
-19 -10 -25 -7 -14 9 -41 -4 -41 -19 0 -8 10 -17 21 -20 17 -6 18 -9 8 -16 -7
-4 -10 -11 -6 -16 5 -4 12 -1 17 6 9 16 2 43 -10 36 -5 -3 -11 -1 -14 4 -13
20 12 20 30 0 18 -20 18 -22 1 -50 -9 -17 -13 -27 -7 -24 5 3 11 1 14 -4 3 -4
20 -7 38 -5 26 3 30 1 18 -7 -12 -9 -11 -10 8 -6 12 3 20 2 17 -3 -3 -4 2 -13
10 -20 12 -10 15 -9 16 6 0 11 3 14 6 6 3 -7 -1 -19 -7 -28 -7 -8 -10 -17 -6
-21 3 -3 6 -1 6 5 0 7 7 12 16 12 14 0 14 -3 4 -15 -11 -13 -10 -14 2 -10 9 4
18 0 21 -8 3 -9 17 -13 40 -11 23 2 37 -2 41 -11 3 -9 12 -12 23 -9 15 5 16 4
3 -5 -8 -6 -11 -11 -7 -11 4 0 3 -10 -3 -22 l-11 -23 19 22 c17 19 21 20 26 7
3 -8 2 -13 -2 -10 -5 3 -9 -1 -9 -8 0 -8 8 -11 19 -8 10 2 15 9 11 16 -4 6 1
5 10 -3 11 -9 17 -10 17 -2 0 6 5 11 12 11 6 0 8 -3 5 -7 -4 -3 -2 -12 4 -19
7 -8 6 -14 -2 -20 -8 -5 -9 -3 -4 6 6 9 4 11 -5 5 -8 -5 -11 -4 -7 2 3 5 0 10
-8 10 -8 0 -15 -4 -15 -9 0 -4 5 -8 11 -8 5 0 8 -4 4 -9 -6 -11 27 -7 48 5 6
4 3 -3 -8 -16 l-20 -24 32 22 c23 17 31 18 29 7 -1 -8 -6 -18 -11 -22 -4 -5
-4 -1 0 7 8 13 7 13 -8 1 -9 -7 -17 -15 -17 -17 0 -5 39 4 53 12 9 6 9 5 0 -7
-10 -13 -10 -16 0 -16 6 0 21 -4 32 -8 20 -7 20 -6 1 9 -23 19 -14 21 14 4 18
-12 18 -13 2 -32 -16 -18 -16 -18 6 -7 22 12 23 11 17 -11 -5 -19 -4 -20 5 -6
8 13 16 15 34 8 13 -5 26 -7 28 -4 3 2 5 -3 5 -11 0 -11 -4 -12 -13 -4 -7 6
-17 8 -23 5 -5 -3 -12 0 -14 6 -3 8 -6 8 -6 2 -1 -6 9 -19 21 -30 19 -15 20
-16 9 -1 -8 10 -9 17 -3 17 6 0 14 -4 17 -10 11 -18 35 -11 28 8 -3 9 3 6 13
-8 20 -28 34 -40 48 -40 6 0 2 6 -9 13 -14 11 -15 16 -5 22 9 6 11 4 5 -5 -6
-10 -4 -12 8 -7 10 4 16 2 14 -6 -1 -7 7 -11 18 -9 11 2 16 -1 10 -5 -21 -17
-12 -38 17 -40 25 -1 27 1 16 15 -10 12 -7 11 14 -2 16 -10 28 -15 28 -12 0 4
9 2 20 -4 11 -6 20 -16 20 -23 0 -7 -4 -6 -10 3 -5 8 -10 11 -10 5 0 -5 -5 -3
-10 5 -8 13 -10 12 -10 -2 0 -10 7 -18 15 -18 8 0 16 -4 16 -10 1 -5 2 -14 3
-19 0 -5 4 -12 9 -15 4 -3 5 -3 2 1 -3 3 1 13 8 21 9 13 9 14 0 8 -7 -4 -13
-2 -13 3 0 6 5 11 11 11 5 0 7 5 4 10 -3 6 -2 10 4 10 6 0 9 -14 7 -30 -4 -37
7 -46 30 -23 17 17 17 17 11 -9 -4 -16 -3 -30 5 -34 7 -4 8 -3 4 4 -4 6 -1 20
6 31 10 17 13 17 23 5 6 -8 18 -16 27 -17 9 -2 24 -9 33 -17 14 -12 18 -12 27
1 8 12 9 12 5 -1 -2 -8 -11 -14 -20 -14 -9 1 -14 -3 -11 -8 4 -6 21 -8 38 -5
17 3 25 3 19 0 -14 -5 -18 -24 -5 -22 19 3 33 -2 27 -11 -3 -5 -4 -10 0 -10 3
0 10 10 15 23 8 21 9 21 9 2 1 -12 -5 -27 -11 -35 -7 -7 0 -3 16 9 l30 22 13
-26 c14 -27 26 -35 17 -11 -3 8 -2 16 3 19 4 3 9 -6 9 -19 1 -13 -3 -24 -9
-24 -6 0 -7 -3 -4 -6 4 -4 13 -1 21 5 15 13 32 -1 22 -18 -4 -5 0 -12 6 -14
10 -4 10 -6 1 -6 -7 -1 -13 -10 -13 -22 0 -12 4 -17 11 -13 8 5 8 1 0 -14 -14
-27 -14 -35 2 -26 6 4 8 3 4 -1 -11 -13 -38 -15 -31 -3 5 7 2 8 -6 3 -10 -6
-9 -11 6 -23 18 -13 18 -14 -4 -7 -21 6 -23 4 -17 -15 5 -15 3 -20 -3 -16 -6
3 -14 1 -18 -5 -5 -8 -3 -9 6 -4 10 6 12 4 7 -8 -4 -12 0 -14 19 -11 13 2 24
0 24 -6 0 -6 -4 -9 -9 -5 -5 3 -12 1 -16 -4 -3 -6 -12 -8 -19 -5 -7 3 -19 -3
-27 -12 -12 -15 -12 -16 0 -10 9 6 12 4 9 -5 -3 -8 -10 -14 -15 -14 -6 0 -15
-4 -20 -9 -5 -5 -3 -6 5 -2 7 4 12 2 12 -6 0 -7 7 -2 16 10 8 12 12 27 8 34
-4 6 -3 8 4 4 6 -3 10 -15 9 -26 -1 -10 -5 -16 -9 -14 -4 3 -9 0 -9 -5 -1 -6
-2 -17 -3 -23 -1 -7 5 -19 14 -26 13 -10 12 -11 -4 -5 -13 4 -17 3 -12 -5 4
-8 -2 -16 -16 -21 -13 -6 -19 -10 -14 -10 5 -1 1 -10 -9 -21 -10 -11 -15 -20
-11 -20 4 0 1 -10 -6 -22 -7 -13 -13 -27 -13 -33 -1 -5 -7 -9 -15 -7 -11 3
-11 0 0 -12 15 -19 24 -21 14 -4 -4 7 -3 8 4 4 7 -4 9 1 7 15 -4 17 -2 19 11
8 13 -10 13 -14 -2 -30 -9 -10 -20 -16 -25 -14 -4 3 -11 -4 -14 -15 -6 -18 -9
-19 -23 -8 -15 12 -16 11 -3 -5 14 -18 16 -18 28 -1 12 16 13 16 13 1 0 -9 -9
-21 -20 -27 -12 -7 -17 -16 -13 -27 5 -12 3 -14 -7 -8 -9 5 -11 4 -6 -4 4 -6
11 -9 16 -6 4 3 10 -2 13 -10 5 -11 1 -12 -16 -6 -19 8 -22 5 -23 -20 -1 -16
3 -26 7 -23 5 3 9 0 9 -5 0 -15 -11 -14 -30 4 -14 13 -17 13 -17 0 0 -8 4 -12
9 -9 4 3 8 -2 8 -11 0 -10 -5 -14 -12 -10 -7 4 -5 0 5 -8 16 -13 16 -15 1 -21
-23 -9 -31 -7 -14 4 8 5 11 10 5 10 -5 0 -17 -5 -25 -10 -11 -7 -11 -10 -2
-10 7 0 10 -5 7 -10 -4 -6 -3 -9 2 -8 4 2 9 -1 10 -7 1 -5 -4 -9 -11 -7 -7 1
-20 -6 -27 -15 -13 -16 -12 -17 4 -4 19 15 19 15 22 -16 1 -12 -2 -20 -6 -17
-9 5 -13 -9 -10 -36 2 -13 1 -13 -8 0 -7 10 -6 21 4 37 13 20 13 22 0 17 -8
-4 -15 -11 -16 -18 -3 -41 -7 -58 -17 -68 -8 -8 -10 -5 -7 15 3 14 1 28 -4 31
-4 3 -7 -6 -5 -19 1 -14 -2 -27 -6 -30 -5 -3 -6 -13 -3 -22 5 -12 3 -14 -8 -8
-8 4 -11 5 -7 0 4 -4 3 -14 -3 -22 -6 -7 -8 -13 -3 -13 5 0 2 -5 -6 -11 -13
-9 -13 -10 2 -6 9 3 15 1 14 -6 -4 -23 -27 -57 -39 -57 -8 0 -8 3 2 9 7 5 11
13 7 19 -3 6 -1 12 6 15 8 2 7 3 -2 3 -8 -1 -15 -7 -15 -14 0 -7 -6 -17 -14
-21 -11 -7 -9 -10 7 -15 21 -7 21 -7 1 -27 -10 -10 -23 -19 -28 -19 -6 0 -13
-4 -16 -10 -3 -5 0 -7 8 -4 8 3 18 0 23 -7 5 -8 3 -10 -5 -5 -8 5 -14 0 -18
-13 -3 -11 -10 -18 -15 -15 -6 4 -4 -4 2 -17 13 -24 13 -24 -8 -6 -13 12 -22
15 -27 7 -4 -6 -1 -9 7 -8 7 2 13 -6 13 -17 1 -11 5 -27 10 -35 7 -12 6 -13
-6 -3 -12 10 -18 10 -29 0 -7 -6 -5 2 5 18 13 24 14 26 1 11 -14 -18 -21 -15
-17 7 1 5 -3 6 -9 2 -6 -3 -7 -12 -3 -18 13 -21 11 -35 -7 -55 -18 -19 -18
-20 3 -30 12 -6 16 -11 9 -11 -7 -1 -10 -5 -7 -11 4 -6 -1 -7 -11 -3 -10 4
-15 2 -12 -3 4 -5 0 -20 -8 -34 -7 -14 -13 -21 -14 -17 0 5 5 17 10 28 7 13 7
19 0 19 -5 0 -10 -7 -10 -16 0 -14 -3 -15 -18 -3 -9 7 -14 9 -10 5 4 -5 3 -15
-3 -23 -9 -10 -8 -13 0 -13 7 0 9 -5 4 -12 -11 -18 -13 -39 -3 -33 5 3 11 1
14 -4 4 -5 2 -12 -4 -16 -6 -4 -7 -11 -4 -17 4 -7 2 -8 -5 -4 -6 4 -9 11 -6
16 3 5 -3 8 -14 7 -16 -1 -18 -4 -8 -15 11 -14 20 -49 10 -38 -9 8 -34 -15
-27 -25 3 -5 -2 -6 -10 -3 -9 3 -13 11 -9 17 3 5 2 7 -3 4 -14 -8 -9 -63 5
-59 7 1 10 -2 6 -8 -4 -7 -12 -7 -25 0 -25 13 -40 12 -17 -1 9 -6 15 -14 12
-20 -9 -14 -27 -11 -19 4 4 6 -2 4 -13 -6 -11 -9 -23 -14 -28 -10 -4 5 -5 2
-1 -5 4 -7 12 -10 17 -7 5 4 9 2 9 -4 0 -12 -25 -37 -42 -44 -7 -2 -9 -8 -5
-13 4 -5 12 -2 17 6 5 8 12 11 17 7 4 -5 1 -12 -6 -16 -7 -5 -11 -13 -7 -19 3
-6 2 -13 -4 -17 -6 -4 -7 -11 -3 -18 3 -6 -9 0 -28 13 -20 14 -28 17 -21 8 14
-17 8 -43 -8 -33 -5 3 -11 1 -14 -4 -11 -16 11 -22 24 -6 7 8 18 15 24 15 6 0
0 -9 -14 -20 -14 -11 -21 -20 -16 -20 5 0 4 -6 -1 -13 -6 -6 -9 -20 -8 -29 2
-10 -2 -16 -8 -15 -7 1 -11 -3 -10 -9 1 -6 -5 -11 -12 -11 -11 0 -12 4 -3 14
8 11 7 12 -6 7 -11 -4 -16 -14 -13 -25 3 -11 -2 -24 -13 -32 -9 -6 -18 -15
-19 -19 -1 -11 -11 -11 -19 -2 -4 4 -1 4 7 -1 10 -5 12 -4 7 4 -11 16 -26 3
-19 -16 5 -12 3 -14 -7 -8 -9 5 -11 4 -6 -4 4 -6 12 -9 17 -6 5 4 9 1 9 -4 0
-6 -9 -11 -20 -11 -14 0 -20 -6 -18 -17 2 -12 -4 -18 -17 -18 -11 -1 -19 -6
-18 -13 2 -7 -2 -12 -8 -12 -6 0 -9 -6 -6 -14 3 -8 3 -17 -1 -21 -4 -4 -7 -20
-8 -36 0 -20 3 -26 10 -19 16 16 30 12 16 -5 -7 -9 -10 -18 -6 -22 3 -3 6 -1
6 6 0 7 5 9 10 6 6 -4 9 -1 8 6 -2 7 4 13 12 14 8 0 14 8 14 18 -2 13 1 15 11
7 9 -8 12 -4 10 15 -2 14 1 27 5 30 5 3 7 -3 5 -13 -2 -10 2 -19 9 -19 7 0 11
12 10 28 -1 21 2 26 13 22 12 -5 12 -7 1 -14 -8 -5 -9 -9 -2 -9 6 0 17 6 24
14 6 8 19 12 28 9 14 -4 15 -3 2 5 -9 7 -18 8 -26 1 -8 -7 -15 -6 -20 2 -4 7
-3 9 4 5 6 -3 13 -2 17 3 3 5 14 8 25 6 13 -2 17 1 14 10 -8 20 29 37 46 22 8
-7 6 1 -4 16 l-17 28 23 -12 c22 -12 22 -11 8 6 -14 17 -13 17 5 7 17 -9 21
-7 22 8 1 14 -3 17 -15 13 -13 -4 -12 -2 3 10 10 8 29 13 41 11 31 -6 51 21
33 43 -8 9 -9 14 -4 11 12 -7 36 17 27 28 -4 4 -1 4 6 0 7 -4 12 -2 12 5 0 7
3 9 7 6 3 -4 -2 -16 -12 -27 -10 -11 -15 -23 -12 -27 4 -3 7 0 7 8 0 12 2 11
11 -1 9 -13 10 -12 5 2 -3 10 -1 20 4 23 6 4 10 0 10 -7 1 -7 8 0 16 15 8 15
19 25 24 22 6 -4 10 -1 10 5 0 6 -6 10 -13 8 -7 -2 -14 2 -15 7 -1 6 4 10 11
10 6 0 12 5 12 12 0 6 3 14 6 18 4 3 6 -2 5 -12 0 -10 3 -18 9 -18 5 0 8 11 7
25 -2 18 0 21 6 11 11 -15 32 -7 32 12 0 8 -3 8 -9 -1 -6 -11 -10 -10 -15 4
-4 10 -4 15 0 12 10 -11 44 10 40 25 -1 6 -1 9 1 5 8 -14 32 -8 42 11 6 10 9
20 8 22 -1 2 3 -1 9 -8 15 -17 21 -16 21 2 0 8 -3 13 -6 11 -3 -2 -13 3 -21
12 -13 14 -12 15 3 9 10 -4 17 -2 17 6 0 8 3 8 9 -2 5 -8 14 -10 21 -6 10 6
10 10 -2 19 -13 10 -13 13 -2 24 8 7 14 9 14 4 0 -4 7 -17 15 -28 8 -10 15
-14 14 -9 -1 6 1 18 6 28 6 15 10 15 24 5 14 -11 14 -11 5 2 -9 11 -9 18 1 27
7 6 16 9 20 5 4 -4 2 3 -4 15 -11 21 -8 27 11 24 4 0 5 6 2 14 -5 11 -2 13 10
9 9 -3 13 -10 10 -15 -14 -23 6 -6 22 18 11 19 13 24 3 16 -10 -8 -19 -9 -29
-1 -12 8 -12 9 2 4 10 -3 20 -1 24 5 3 6 11 8 17 6 7 -2 22 7 35 20 26 29 30
52 5 32 -16 -13 -17 -12 -4 3 7 10 17 16 21 13 4 -3 10 2 13 9 3 8 3 17 -1 19
-4 2 -1 2 7 0 18 -5 63 25 56 37 -4 6 -1 10 4 10 6 0 11 7 11 15 0 13 4 14 23
4 l22 -12 -20 22 c-16 19 -17 24 -5 31 8 5 18 6 24 3 5 -4 7 0 4 9 -4 8 0 15
8 15 7 0 11 -3 9 -7 -2 -4 2 -7 9 -7 8 0 12 8 9 21 -4 21 -4 21 13 1 16 -19
16 -15 0 25 -4 10 7 22 35 38 30 18 38 26 30 36 -8 9 -7 13 4 13 8 0 12 -4 9
-9 -3 -4 0 -8 5 -8 6 0 11 12 11 27 0 25 1 26 14 8 13 -18 14 -18 9 9 -4 20
-2 27 6 22 6 -4 11 -2 11 5 0 8 4 8 15 -1 13 -11 14 -10 9 4 -3 9 -11 16 -17
16 -6 0 -7 3 -4 6 4 4 12 2 20 -4 10 -8 13 -6 14 9 1 11 -2 17 -7 14 -5 -3
-12 0 -16 6 -4 7 -3 9 4 5 6 -3 13 -2 17 4 3 5 12 10 18 10 8 0 8 -3 -2 -9 -8
-5 -9 -11 -3 -15 10 -6 28 30 24 47 -1 4 7 7 18 7 11 0 20 5 20 11 0 5 -4 7
-10 4 -6 -3 -7 1 -3 10 4 13 7 14 14 3 7 -11 10 -10 21 1 10 10 10 12 1 7 -8
-5 -13 -1 -13 9 0 9 5 13 10 10 6 -3 10 -1 10 4 0 6 -5 11 -12 11 -6 0 -8 3
-5 7 4 3 17 -2 29 -13 12 -10 18 -13 13 -5 -4 8 -2 17 6 23 11 8 10 9 -3 4
-10 -3 -18 -1 -18 4 0 6 9 10 20 10 11 0 20 4 20 10 0 5 -8 6 -17 3 -15 -6
-16 -5 -3 9 8 9 17 13 20 9 3 -3 11 -7 19 -9 12 -3 12 -1 0 14 -11 14 -11 18
-1 22 10 3 10 7 1 18 -8 10 -8 14 0 14 11 0 14 -11 12 -40 0 -8 5 -4 11 10 16
31 27 39 47 33 10 -3 12 -2 5 4 -6 4 -14 16 -17 27 -6 14 -4 17 9 12 14 -5 15
-4 5 8 -10 12 -9 14 8 9 12 -3 18 -10 14 -17 -3 -6 -2 -7 3 -3 5 5 9 14 9 20
1 7 6 11 13 9 7 -1 12 3 12 8 0 13 -32 9 -42 -5 -5 -6 -8 -6 -8 1 0 6 7 17 15
24 8 7 15 9 15 6 0 -4 7 -1 15 8 9 9 23 12 33 9 16 -6 16 -6 0 10 -9 10 -14
25 -11 38 4 15 8 17 14 8 5 -8 3 -17 -4 -21 -7 -5 -8 -8 -1 -8 18 0 65 55 54
66 -6 6 -6 15 0 24 7 10 10 11 10 3 0 -7 8 -13 18 -13 10 0 13 3 6 8 -13 8
-15 44 -2 36 4 -3 8 1 8 8 0 10 2 10 8 1 5 -7 13 -9 21 -3 8 4 20 6 28 3 7 -3
21 1 30 8 12 10 15 10 9 2 -4 -8 -2 -13 6 -13 8 0 20 6 27 13 11 10 11 8 2
-11 -7 -12 -16 -20 -22 -17 -5 4 -9 1 -9 -4 0 -14 17 -14 25 0 5 6 12 4 22 -8
8 -10 12 -13 9 -6 -10 18 13 26 32 12 16 -13 16 -12 0 6 -16 19 -15 20 18 21
19 1 34 -2 34 -7 0 -4 -9 -6 -19 -4 -14 3 -18 -1 -14 -12 4 -11 8 -12 13 -3 6
9 10 8 17 -5 9 -16 11 -16 16 -1 4 10 3 15 -3 11 -6 -3 -7 1 -3 10 4 13 8 14
14 4 4 -7 6 -16 3 -20 -2 -4 0 -10 5 -13 5 -4 8 5 7 17 -3 21 1 24 28 22 17
-1 37 3 44 8 8 6 12 6 12 -2 0 -10 -13 -15 -32 -12 -4 0 -4 -7 -1 -16 4 -11 8
-13 11 -5 2 7 10 12 18 12 9 0 12 -5 8 -12 -4 -7 -4 -10 1 -6 4 4 14 3 22 -4
11 -9 13 -8 11 1 -2 8 8 15 22 17 24 4 24 3 6 -11 -11 -8 -15 -15 -9 -15 7 0
15 5 18 10 4 6 10 8 14 6 4 -3 13 0 21 6 13 8 12 9 -2 5 -9 -3 -19 -3 -23 1
-11 11 -65 9 -58 -1 3 -6 1 -7 -6 -3 -9 6 -9 11 0 22 8 10 15 11 24 4 10 -8
15 -8 20 1 6 8 10 8 16 -2 9 -16 61 -19 72 -4 5 6 7 4 4 -5 -2 -8 -10 -14 -16
-12 -7 1 -10 -2 -6 -8 3 -5 1 -10 -6 -10 -7 0 -9 -3 -6 -6 4 -4 13 -1 22 6 8
7 15 9 15 4 1 -5 7 2 14 15 11 20 14 21 19 7 4 -10 3 -15 -3 -11 -6 3 -10 1
-10 -4 0 -18 29 -12 50 9 10 10 22 15 25 11 2 -5 -3 -12 -12 -15 -15 -6 -15
-9 -3 -17 12 -9 12 -10 -3 -5 -12 4 -16 2 -11 -6 5 -8 1 -9 -12 -4 -14 5 -16
4 -8 -4 9 -9 17 -9 32 -1 10 6 22 7 26 3 4 -3 4 0 1 9 -4 10 1 15 14 15 15 0
17 -3 9 -13 -7 -9 -7 -13 0 -13 6 0 13 4 17 9 3 6 14 9 25 8 10 -1 16 -5 14
-9 -3 -4 0 -8 7 -8 7 0 9 -3 6 -6 -4 -4 -13 -1 -21 5 -11 9 -16 9 -22 0 -4 -7
-3 -9 4 -5 5 3 12 1 14 -6 2 -6 12 -9 21 -5 10 4 14 12 11 22 -3 8 -1 15 4 15
6 0 9 -15 7 -32 -2 -18 -1 -27 2 -20 2 6 10 9 16 5 22 -13 45 -13 57 2 12 15
40 10 40 -7 0 -7 -5 -7 -13 0 -10 8 -16 6 -25 -9 -7 -10 -8 -19 -3 -19 5 0 12
6 14 13 4 9 8 8 16 -3 7 -10 11 -11 11 -2 0 6 5 12 11 12 5 0 7 -4 4 -10 -3
-5 -2 -10 3 -10 5 0 14 10 20 23 l11 22 -2 -25 c-1 -14 -6 -29 -12 -33 -10 -9
4 -5 42 10 15 6 16 4 5 -9 -10 -13 -9 -18 5 -29 16 -13 17 -12 4 3 -12 16 -11
18 8 18 12 0 20 -4 16 -9 -10 -18 13 -21 30 -5 15 15 15 14 11 -9 -3 -19 -1
-24 9 -21 8 3 11 13 9 22 -5 14 -3 14 9 -1 8 -10 18 -18 21 -18 21 3 26 0 20
-10 -4 -8 -9 -7 -15 2 -5 8 -9 9 -9 3 0 -18 11 -23 35 -14 17 6 26 4 39 -11 9
-11 21 -17 26 -14 6 3 10 -1 10 -10 0 -9 -4 -13 -10 -10 -6 4 -7 -1 -3 -11 5
-15 7 -15 15 0 10 18 55 18 55 -1 0 -10 -4 -10 -14 -1 -10 8 -17 8 -24 1 -8
-8 -7 -13 2 -18 8 -6 10 -4 4 5 -5 8 -3 11 5 8 7 -2 14 -12 16 -22 1 -10 6
-21 10 -24 4 -4 5 1 1 10 -3 9 0 19 8 22 9 3 12 0 9 -8 -3 -7 5 -24 16 -37 12
-13 19 -18 15 -12 -3 8 0 13 9 13 8 0 17 6 19 13 3 6 4 -2 3 -20 -2 -18 -1
-32 3 -31 21 2 31 -4 25 -15 -6 -9 -4 -9 7 0 20 19 34 16 18 -4 -12 -14 -12
-15 0 -9 10 7 12 3 7 -15 -3 -13 -3 -18 0 -11 5 10 9 10 20 1 8 -6 11 -15 8
-20 -3 -5 -2 -9 3 -8 20 3 33 -2 31 -13 -2 -8 6 -13 19 -12 12 0 20 -3 18 -6
-3 -4 13 -26 35 -49 22 -23 40 -45 40 -49 0 -4 -20 15 -45 41 -25 27 -45 45
-45 40 0 -4 13 -21 30 -36 16 -16 29 -33 27 -40 -1 -6 4 -11 11 -12 8 0 19 -8
26 -17 7 -10 17 -18 21 -18 4 0 2 6 -4 14 -9 11 -9 16 1 22 7 4 10 3 5 -1 -4
-5 2 -19 14 -31 15 -16 17 -24 8 -29 -7 -5 -10 -4 -6 1 3 5 -3 10 -14 10 -10
0 -19 -4 -19 -8 0 -8 23 -12 49 -8 12 1 12 -1 3 -12 -9 -12 -9 -15 3 -15 8 0
12 4 9 9 -4 5 3 12 15 15 23 6 27 18 11 28 -8 5 -7 11 1 21 6 8 8 14 3 14 -5
0 -2 5 6 11 13 9 12 10 -2 5 -21 -6 -23 5 -5 23 10 10 9 12 -3 9 -10 -2 -14 3
-12 17 5 27 -7 14 -13 -14 -3 -15 0 -19 8 -14 7 4 5 -2 -3 -13 -8 -10 -16 -21
-17 -23 -2 -3 -2 6 1 20 2 13 -1 30 -6 37 -6 6 -7 12 -4 12 4 0 2 10 -4 23
-11 21 -10 21 4 3 9 -11 16 -15 16 -9 0 6 -7 16 -16 24 -13 10 -17 10 -25 -2
-5 -8 -9 -9 -9 -3 0 6 7 17 15 24 17 14 20 30 4 30 -5 0 -7 -4 -4 -10 3 -6 -1
-7 -10 -4 -14 6 -14 8 2 21 10 8 12 12 6 8 -8 -4 -14 0 -14 9 -3 30 -4 34 -13
43 -5 4 -7 3 -3 -3 3 -6 0 -11 -7 -11 -7 0 -13 5 -13 11 0 6 -5 26 -12 44 -12
31 -14 32 -28 15 -8 -10 -11 -12 -7 -4 3 7 10 29 14 47 8 36 -2 45 -19 17 -6
-10 -10 -13 -11 -8 0 15 13 31 30 38 12 4 11 6 -2 6 -10 1 -18 7 -18 14 0 8
-3 7 -10 -3 -7 -11 -9 -9 -8 10 1 14 6 31 11 38 7 9 6 11 -4 7 -8 -3 -27 6
-43 20 -16 14 -25 25 -20 25 6 0 16 -6 23 -12 11 -11 12 -9 3 7 -5 11 -10 23
-11 28 -1 4 -4 7 -8 6 -3 0 -10 6 -15 15 -5 9 -13 14 -18 11 -4 -3 -6 3 -3 14
3 10 0 22 -6 25 -7 5 -9 0 -5 -11 5 -17 5 -17 -6 0 -6 10 -16 14 -23 10 -7 -4
-6 0 2 10 15 18 26 23 16 7 -10 -16 1 -12 15 6 11 12 11 15 -1 12 -8 -2 -13 3
-11 10 1 8 -2 11 -8 7 -6 -3 -7 -12 -3 -18 5 -8 2 -8 -9 0 -8 7 -18 10 -22 6
-4 -4 -4 1 0 11 5 14 9 15 15 4 7 -10 9 -9 9 5 0 15 -22 23 -53 18 -4 0 -6 2
-6 6 1 5 0 11 -1 16 -1 4 -3 13 -4 20 0 6 -6 12 -13 12 -6 0 -15 4 -20 9 -5 6
-2 6 6 1 11 -6 13 -4 8 11 -5 14 -2 12 12 -6 11 -13 17 -28 15 -32 -2 -3 0 -9
6 -13 6 -4 9 4 8 19 -1 13 -6 22 -10 20 -7 -5 -12 10 -9 29 0 4 -2 6 -6 6 -24
-4 -35 3 -31 19 4 12 -1 18 -13 19 -11 1 -19 -3 -19 -8 0 -6 5 -7 12 -3 7 4 8
3 4 -5 -10 -15 -29 -3 -22 15 3 7 1 16 -4 19 -4 3 -11 -1 -13 -7 -4 -10 -6
-10 -6 0 -1 7 -6 10 -13 6 -7 -4 -8 -3 -4 5 4 6 12 9 17 6 14 -9 11 3 -8 24
-9 11 -18 30 -20 42 -2 13 -6 25 -10 28 -3 3 -3 -4 0 -16 3 -16 1 -23 -10 -23
-10 0 -12 6 -8 23 7 22 7 22 -9 2 -15 -19 -16 -19 -6 9 9 26 9 28 -5 16 -8 -7
-18 -10 -22 -6 -3 3 -1 6 5 6 6 0 9 7 5 16 -3 10 -13 14 -25 10 -11 -2 -17 -2
-14 1 3 4 0 13 -7 22 -11 14 -10 14 6 2 15 -12 17 -12 11 3 -7 18 -20 21 -29
6 -6 -10 -40 -9 -51 3 -4 3 6 4 21 1 15 -3 24 -1 21 5 -3 5 0 12 6 15 7 3 3 3
-10 0 -15 -4 -24 0 -28 10 -3 9 -10 16 -16 16 -5 0 -6 -5 -2 -12 5 -7 3 -8 -6
-3 -10 6 -10 11 4 20 14 11 14 12 -9 13 -13 0 -23 -4 -20 -8 2 -3 -2 -7 -10
-7 -8 0 -13 3 -10 5 3 3 0 11 -5 17 -13 15 -2 47 13 38 5 -3 7 -2 4 3 -8 14
-67 16 -67 2 0 -6 -3 -8 -6 -5 -4 4 -1 13 6 22 15 18 7 19 -21 5 -11 -6 -19
-7 -18 -3 3 17 -1 33 -8 31 -14 -2 -43 14 -43 25 0 5 9 2 20 -8 11 -10 20 -13
20 -7 0 7 -5 12 -11 12 -8 0 -7 6 2 17 12 15 12 16 -1 8 -8 -5 -23 -8 -34 -6
-11 1 -16 -2 -12 -8 5 -7 1 -8 -9 -4 -9 3 -13 9 -8 12 4 3 9 12 11 20 3 12 0
12 -12 1 -9 -7 -16 -9 -16 -4 0 5 -4 2 -10 -6 -8 -12 -10 -12 -16 3 -3 9 -11
14 -17 10 -6 -3 -7 -1 -3 6 4 6 13 8 19 4 19 -12 37 -12 37 -1 0 6 -7 8 -15 5
-8 -4 -17 -2 -21 4 -3 6 -13 8 -21 5 -11 -5 -13 -1 -8 17 5 17 4 19 -4 7 -8
-11 -11 -12 -11 -2 0 7 -5 10 -10 7 -8 -5 -7 -12 2 -23 11 -15 10 -15 -8 0
-16 14 -23 15 -34 5 -8 -6 -11 -8 -7 -3 4 5 1 16 -6 24 -10 13 -9 14 3 7 19
-12 46 -16 34 -6 -5 4 -22 13 -38 19 -26 12 -28 11 -22 -5 6 -14 5 -15 -5 -6
-10 10 -9 16 1 28 7 9 9 15 4 14 -20 -3 -26 2 -16 14 6 6 11 17 11 22 1 13 20
14 46 3 19 -8 19 -8 3 5 -22 17 -23 31 -3 24 8 -4 17 -1 21 5 4 6 3 8 -2 5 -6
-3 -16 -2 -24 4 -12 7 -9 9 10 10 14 1 28 1 32 0 8 -1 5 20 -6 38 -6 9 -5 12
2 7 5 -3 12 0 15 6 3 10 7 10 20 -1 19 -15 24 -2 6 16 -7 7 -2 10 20 7 26 -3
29 -1 19 10 -10 10 -15 11 -21 2 -6 -6 -6 -4 -3 8 4 10 1 26 -6 35 -6 9 1 4
16 -11 33 -34 41 -35 25 -5 -12 21 -11 21 6 7 10 -8 16 -10 12 -3 -10 16 20
43 41 37 14 -5 15 -4 2 5 -14 10 -7 16 14 12 5 -1 4 4 -2 12 -7 8 -9 17 -5 21
4 4 0 4 -10 0 -9 -3 -17 -2 -17 3 0 5 11 10 26 11 14 1 23 -2 19 -7 -3 -5 -1
-12 4 -15 5 -3 7 10 5 30 -3 34 -2 35 11 18 13 -18 14 -17 9 6 -5 25 -5 25 12
5 15 -18 16 -18 10 -2 -3 10 -6 23 -6 28 0 4 -6 7 -12 5 -7 -1 -10 -1 -5 1 4
3 5 8 3 12 -3 4 8 6 25 5 16 -1 32 3 36 9 4 6 1 7 -6 3 -9 -6 -11 1 -9 25 3
19 10 35 16 35 7 1 16 2 22 3 6 1 6 10 0 26 -10 26 -7 29 24 25 17 -2 17 0 -3
21 -11 12 -19 25 -16 28 3 2 11 -4 19 -14 12 -17 13 -17 28 3 8 12 17 20 19
17 3 -2 5 5 6 15 2 28 -4 25 -28 -12 -12 -18 -18 -24 -14 -13 4 11 8 25 8 32
0 7 4 10 8 7 4 -2 11 1 14 7 4 5 14 8 22 4 13 -4 14 -3 3 10 -7 8 -17 12 -22
9 -6 -4 -2 5 7 20 15 22 20 24 33 14 13 -11 14 -11 7 1 -12 20 -15 62 -4 55 5
-3 9 3 9 13 1 13 5 11 16 -9 8 -16 17 -28 20 -28 3 0 2 5 -2 12 -11 18 -13 78
-2 84 5 3 4 13 -4 22 -12 15 -11 16 5 3 9 -8 21 -10 25 -6 4 4 1 10 -6 12 -6
3 -9 9 -6 14 3 6 12 5 22 -3 15 -12 15 -11 0 10 -19 28 -13 68 7 49 15 -14 9
-31 -7 -21 -7 5 -8 2 -3 -5 9 -16 30 2 30 27 0 9 5 16 11 15 5 -1 10 9 10 23
0 24 -10 32 -20 15 -4 -5 -1 -11 5 -13 7 -2 4 -10 -7 -18 -16 -13 -17 -13 -12
1 4 9 1 22 -5 29 -9 10 -9 11 1 6 6 -4 12 -2 12 3 0 6 7 11 15 11 8 0 15 5 15
11 0 5 -4 8 -8 5 -4 -2 -8 7 -9 22 -2 24 -1 24 7 7 7 -16 9 -11 9 23 1 23 6
42 12 42 5 0 7 5 3 12 -5 8 -2 9 10 5 14 -5 15 -3 6 13 -7 12 -7 21 0 25 5 3
10 12 10 18 0 7 -7 3 -15 -7 -8 -11 -18 -16 -22 -13 -8 8 28 37 39 31 4 -2 10
1 14 7 4 7 3 10 -2 7 -5 -3 -15 1 -23 10 -13 13 -12 14 12 9 14 -4 29 -3 32 3
3 6 0 7 -9 4 -11 -4 -14 0 -11 16 3 17 0 20 -18 16 -12 -3 -16 -3 -9 0 6 3 12
14 12 25 0 10 4 19 10 19 5 0 7 -6 4 -14 -3 -7 2 -16 12 -20 13 -5 14 -4 6 7
-7 8 -9 17 -5 21 11 11 14 46 4 46 -6 0 -8 -9 -6 -20 2 -12 0 -18 -6 -15 -5 4
-7 10 -4 15 3 5 1 11 -5 15 -6 4 -8 11 -4 16 3 5 11 6 17 2 7 -4 6 1 -2 10
-19 24 -22 64 -5 64 10 0 11 -4 4 -11 -13 -13 -13 -29 0 -21 6 4 7 -1 3 -11
-4 -12 -3 -15 5 -10 6 4 10 20 8 37 -2 16 1 32 6 35 5 3 4 12 -3 20 -12 15
-33 9 -23 -7 3 -5 10 -6 16 -3 7 4 8 2 4 -5 -6 -9 -11 -9 -22 0 -10 8 -11 15
-4 24 5 6 6 15 2 20 -4 4 3 3 15 -4 16 -8 24 -8 29 1 4 6 3 8 -4 4 -7 -4 -9
10 -8 44 2 27 -1 47 -6 44 -4 -3 -5 -10 -2 -16 5 -7 1 -7 -11 0 -10 5 -19 21
-19 35 -1 14 2 23 7 20 5 -3 7 -14 4 -24 -3 -11 -1 -19 4 -19 5 0 9 7 9 16 0
8 4 13 8 10 8 -4 8 11 3 58 -1 5 -9 2 -18 -5 -15 -11 -14 -10 1 9 19 22 19 22
0 22 -16 0 -17 2 -4 10 8 5 11 10 6 10 -6 0 -5 5 2 12 9 9 8 16 -5 31 -10 10
-13 18 -8 17 24 -5 31 2 30 29 0 17 -5 34 -9 38 -5 4 -6 3 -3 -3 3 -6 0 -11
-7 -11 -7 0 -13 6 -13 13 0 7 3 13 6 12 18 -2 31 3 31 13 0 5 -4 7 -10 4 -5
-3 -10 1 -10 10 0 10 5 13 12 9 7 -4 8 -3 4 4 -4 7 -1 12 6 12 8 1 7 4 -4 10
-18 11 -17 47 2 42 6 -1 9 2 5 8 -5 8 -11 7 -21 -1 -11 -9 -13 -6 -10 20 2 21
0 28 -8 23 -16 -10 -50 -9 -57 1 -3 5 -9 2 -12 -6z m33 -13 c0 -8 -19 -13 -24
-6 -3 5 1 9 9 9 8 0 15 -2 15 -3z m10 -58 c0 -2 -8 -10 -17 -17 -16 -13 -17
-12 -4 4 13 16 21 21 21 13z m25 -26 c3 -5 1 -10 -4 -10 -6 0 -11 5 -11 10 0
6 2 10 4 10 3 0 8 -4 11 -10z m-95 -124 c0 -3 -4 -8 -10 -11 -5 -3 -10 -1 -10
4 0 6 5 11 10 11 6 0 10 -2 10 -4z m-1463 -57 c-1 -10 -5 -15 -11 -12 -5 4 -7
-1 -3 -10 4 -10 10 -24 14 -33 4 -12 2 -15 -7 -12 -18 6 -21 85 -4 85 7 0 12
-8 11 -18z m1580 -84 c0 -8 -4 -12 -9 -9 -5 3 -6 10 -3 15 9 13 12 11 12 -6z
m-1572 -74 c-3 -6 -11 -11 -16 -11 -5 0 -4 6 3 14 14 16 24 13 13 -3z m1572
-17 c-3 -3 -12 -4 -19 -1 -8 3 -5 6 6 6 11 1 17 -2 13 -5z m-1560 -10 c-3 -3
-12 -4 -19 -1 -8 3 -5 6 6 6 11 1 17 -2 13 -5z m1558 -22 c-3 -3 -11 0 -18 7
-9 10 -8 11 6 5 10 -3 15 -9 12 -12z m-300 -132 c-3 -5 -11 -10 -16 -10 -6 0
-7 5 -4 10 3 6 11 10 16 10 6 0 7 -4 4 -10z m256 -73 c-10 -9 -11 -8 -5 6 3
10 9 15 12 12 3 -3 0 -11 -7 -18z m-1517 -13 c3 -8 2 -12 -4 -9 -6 3 -10 1
-10 -4 0 -6 -5 -11 -10 -11 -6 0 -5 8 2 20 15 24 14 24 22 4z m-33 -366 c20
-29 21 -31 3 -15 -12 9 -23 15 -25 12 -3 -2 -5 5 -5 15 0 26 1 26 27 -12z
m905 -7 c1 -6 0 -7 -3 -1 -2 5 -9 8 -13 5 -5 -3 -11 -1 -14 4 -4 5 2 8 11 7 9
-2 18 -8 19 -15z m-149 -115 c0 -8 -6 -12 -14 -9 -7 3 -10 9 -7 14 8 14 21 11
21 -5z m-120 -81 c0 -8 -4 -15 -9 -15 -4 0 -8 5 -8 11 0 5 -5 7 -12 3 -7 -4
-8 -3 -4 4 10 17 33 15 33 -3z m-125 -40 c2 2 10 -6 17 -18 13 -19 12 -21 -1
-10 -8 7 -18 10 -21 6 -4 -3 -7 -1 -7 6 0 7 -4 10 -9 7 -5 -3 -12 1 -15 9 -4
12 -2 13 13 6 10 -6 20 -8 23 -6z m48 -5 c0 -5 -4 -10 -10 -10 -5 0 -10 5 -10
10 0 6 5 10 10 10 6 0 10 -4 10 -10z m-918 -270 c-12 -12 -22 -18 -22 -14 0
12 33 45 38 39 3 -3 -4 -14 -16 -25z m-1060 -22 c-5 -5 -16 -6 -26 -2 -13 5
-14 9 -5 20 9 11 15 12 26 3 8 -7 10 -16 5 -21z m-19 -52 c4 -11 1 -13 -10 -9
-12 5 -14 3 -8 -7 5 -9 4 -11 -4 -6 -9 6 -9 11 0 22 14 17 16 17 22 0z m190
-1 c-3 -9 -8 -14 -10 -11 -3 3 -2 9 2 15 9 16 15 13 8 -4z m180 -30 c-3 -9 -8
-14 -10 -11 -3 3 -2 9 2 15 9 16 15 13 8 -4z m227 -26 c0 -3 -6 -6 -14 -6 -8
0 -11 8 -8 20 4 14 7 16 13 5 5 -7 9 -16 9 -19z m-75 10 c11 -16 1 -19 -13 -3
-7 8 -8 14 -3 14 5 0 13 -5 16 -11z m2043 -6 c-12 -15 -22 -18 -14 -4 4 5 0
11 -6 14 -7 3 -3 4 9 4 17 -1 19 -4 11 -14z m-2428 -68 c0 -5 -5 -3 -10 5 -5
8 -10 20 -10 25 0 6 5 3 10 -5 5 -8 10 -19 10 -25z m2550 -421 c0 -8 -19 -13
-24 -6 -3 5 1 9 9 9 8 0 15 -2 15 -3z m245 -244 c3 -6 -1 -7 -9 -4 -18 7 -21
14 -7 14 6 0 13 -4 16 -10z m-1795 -30 c0 -4 -6 -10 -13 -13 -7 -3 -13 3 -13
13 0 10 6 16 13 13 7 -3 13 -9 13 -13z m1875 -79 c3 -5 2 -12 -3 -15 -5 -3 -9
1 -9 9 0 17 3 19 12 6z m-1951 -136 c-4 -8 -10 -15 -14 -15 -5 0 -7 -15 -5
-32 2 -18 1 -27 -2 -20 -2 6 -9 9 -15 6 -6 -4 -5 2 1 15 7 11 9 21 5 21 -4 0
1 9 11 20 22 24 26 25 19 5z m896 -45 c0 -5 -5 -10 -11 -10 -5 0 -7 5 -4 10 3
6 8 10 11 10 2 0 4 -4 4 -10z m420 0 c0 -5 -2 -10 -4 -10 -3 0 -8 5 -11 10 -3
6 -1 10 4 10 6 0 11 -4 11 -10z m214 -73 c6 -4 0 -6 -13 -4 -14 2 -27 10 -29
18 -3 11 -1 11 7 -1 9 -13 11 -12 12 5 0 15 2 16 6 5 3 -8 11 -18 17 -23z
m-841 2 c4 -3 -1 -13 -11 -22 -15 -14 -19 -14 -19 -2 0 8 5 12 10 8 5 -3 6 4
2 18 -4 14 -4 20 1 14 5 -5 12 -12 17 -16z m1442 11 c-3 -5 -12 -10 -18 -10
-7 0 -6 4 3 10 19 12 23 12 15 0z m-465 -34 c0 -2 -7 -7 -16 -10 -8 -3 -12 -2
-9 4 6 10 25 14 25 6z m495 -35 c3 -5 2 -12 -3 -15 -5 -3 -9 1 -9 9 0 17 3 19
12 6z m-1540 -11 c3 -6 -1 -7 -9 -4 -18 7 -21 14 -7 14 6 0 13 -4 16 -10z
m-694 -17 c13 -16 12 -17 -3 -4 -10 7 -18 15 -18 17 0 8 8 3 21 -13z m2077
-140 c-6 -7 -12 -13 -13 -13 -2 0 -5 6 -8 13 -3 7 3 13 14 13 13 0 15 -3 7
-13z m134 -97 c7 4 8 2 4 -4 -4 -7 -2 -12 5 -12 7 0 9 -3 6 -7 -8 -8 -47 26
-47 41 0 6 5 3 11 -7 6 -9 15 -14 21 -11z m133 15 c3 -5 2 -12 -3 -15 -5 -3
-9 1 -9 9 0 17 3 19 12 6z m-95 -61 c0 -5 -5 -10 -11 -10 -5 0 -7 5 -4 10 3 6
8 10 11 10 2 0 4 -4 4 -10z m-2393 -41 c-9 -6 -14 -15 -11 -21 4 -7 2 -8 -4
-4 -7 4 -12 2 -12 -3 0 -6 -5 -11 -12 -11 -6 0 -1 11 12 25 13 14 28 25 34 25
6 0 3 -5 -7 -11z m553 1 c0 -5 -5 -10 -11 -10 -5 0 -7 5 -4 10 3 6 8 10 11 10
2 0 4 -4 4 -10z m1978 -66 c-3 -14 -5 -12 -10 9 -3 19 -2 25 4 19 6 -6 8 -18
6 -28z m-23 6 c3 -5 1 -10 -4 -10 -6 0 -11 5 -11 10 0 6 2 10 4 10 3 0 8 -4
11 -10z m40 -48 c-3 -3 -11 0 -18 7 -9 10 -8 11 6 5 10 -3 15 -9 12 -12z m35
14 c0 -3 -4 -8 -10 -11 -5 -3 -10 -1 -10 4 0 6 5 11 10 11 6 0 10 -2 10 -4z
m-4 -38 c4 -6 3 -8 -4 -4 -5 3 -13 0 -15 -6 -3 -8 -6 -6 -6 5 -1 19 14 23 25
5z m-2186 -38 c0 -5 -2 -10 -4 -10 -3 0 -8 5 -11 10 -3 6 -1 10 4 10 6 0 11
-4 11 -10z m-500 -70 c0 -5 -2 -10 -4 -10 -3 0 -8 5 -11 10 -3 6 -1 10 4 10 6
0 11 -4 11 -10z m-71 -106 c-6 -8 -17 -14 -23 -14 -6 0 -4 5 4 10 8 5 11 10 7
10 -5 0 -5 5 -2 10 4 6 11 8 16 4 6 -4 6 -11 -2 -20z m421 -19 c0 -2 -10 -9
-22 -15 -22 -11 -22 -10 -4 4 21 17 26 19 26 11z m-103 -107 c-5 -3 -16 -4
-23 -1 -10 4 -10 8 -1 17 8 9 14 10 23 2 8 -8 8 -13 1 -18z m-390 -2 c0 -8 -6
-12 -14 -9 -7 3 -10 9 -7 14 8 14 21 11 21 -5z m261 -125 c-28 -36 -33 -37
-35 -9 -2 18 0 20 7 8 9 -14 14 -7 11 13 -1 5 3 6 9 2 5 -3 10 -1 10 4 0 6 5
11 11 11 6 0 0 -13 -13 -29z m-358 -81 c0 -5 -5 -10 -11 -10 -5 0 -7 5 -4 10
3 6 8 10 11 10 2 0 4 -4 4 -10z m221 -33 c-10 -9 -11 -8 -5 6 3 10 9 15 12 12
3 -3 0 -11 -7 -18z m-137 -142 c-4 -8 -8 -15 -10 -15 -2 0 -4 7 -4 15 0 8 4
15 10 15 5 0 7 -7 4 -15z m-104 -59 c0 -3 -4 -8 -10 -11 -5 -3 -10 -1 -10 4 0
6 5 11 10 11 6 0 10 -2 10 -4z m25 -17 c-10 -15 -25 -10 -19 6 4 8 10 12 15 9
5 -3 7 -10 4 -15z m-300 -160 c-4 -5 -1 -9 6 -9 6 0 1 -9 -12 -19 -13 -11 -21
-23 -16 -27 4 -4 14 1 23 12 8 10 13 13 9 6 -4 -7 -2 -18 4 -25 7 -10 3 -13
-18 -12 -22 0 -28 4 -26 20 1 11 4 21 5 23 1 1 4 7 5 12 1 6 4 13 5 18 1 4 2
11 1 15 -1 5 3 6 9 2 6 -3 8 -11 5 -16z m50 12 c3 -5 2 -12 -3 -15 -5 -3 -9 1
-9 9 0 17 3 19 12 6z"/>
<path d="M690 3200 c0 -5 5 -10 11 -10 5 0 7 5 4 10 -3 6 -8 10 -11 10 -2 0
-4 -4 -4 -10z"/>
<path d="M3576 4741 c3 -4 11 -6 17 -6 17 0 19 -23 2 -27 -13 -2 -12 -6 6 -16
14 -9 19 -10 14 -2 -4 7 -1 17 6 22 11 7 11 11 1 15 -6 2 -10 8 -8 12 3 4 -6
7 -19 7 -14 0 -22 -2 -19 -5z"/>
<path d="M2115 4581 c-3 -5 -2 -12 3 -15 5 -3 9 1 9 9 0 17 -3 19 -12 6z"/>
<path d="M3726 4548 c3 -5 10 -6 15 -3 13 9 11 12 -6 12 -8 0 -12 -4 -9 -9z"/>
<path d="M2215 4520 c3 -5 8 -10 11 -10 2 0 4 5 4 10 0 6 -5 10 -11 10 -5 0
-7 -4 -4 -10z"/>
<path d="M3726 4522 c-2 -4 2 -18 9 -32 13 -24 14 -24 12 -2 -1 12 -6 22 -12
22 -5 0 -3 5 5 10 9 6 10 10 3 10 -6 0 -14 -3 -17 -8z"/>
<path d="M3543 4493 c-15 -5 -17 -23 -4 -23 5 0 11 7 15 15 3 8 4 15 3 14 -1
0 -8 -3 -14 -6z"/>
<path d="M3484 4363 c2 -10 -5 -26 -15 -37 -10 -10 -16 -23 -13 -28 3 -4 0 -8
-5 -8 -6 0 -11 -5 -11 -12 0 -6 9 -3 20 7 11 10 18 20 15 23 -3 3 1 12 7 20
15 18 19 40 8 47 -5 3 -7 -3 -6 -12z"/>
<path d="M2128 4193 c7 -3 16 -2 19 1 4 3 -2 6 -13 5 -11 0 -14 -3 -6 -6z"/>
<path d="M3730 4160 c0 -5 5 -10 11 -10 5 0 7 5 4 10 -3 6 -8 10 -11 10 -2 0
-4 -4 -4 -10z"/>
<path d="M2435 4130 c-3 -6 1 -7 9 -4 18 7 21 14 7 14 -6 0 -13 -4 -16 -10z"/>
<path d="M2460 4016 c0 -2 7 -9 15 -16 9 -7 15 -8 15 -2 0 5 -7 12 -15 16 -8
3 -15 4 -15 2z"/>
<path d="M3245 4001 c-3 -5 -2 -12 3 -15 5 -3 9 1 9 9 0 17 -3 19 -12 6z"/>
<path d="M3690 3939 c0 -5 5 -7 10 -4 6 3 10 8 10 11 0 2 -4 4 -10 4 -5 0 -10
-5 -10 -11z"/>
<path d="M3175 3920 c-3 -5 -1 -10 4 -10 6 0 11 5 11 10 0 6 -2 10 -4 10 -3 0
-8 -4 -11 -10z"/>
<path d="M3660 3880 c0 -5 7 -7 15 -4 8 4 15 8 15 10 0 2 -7 4 -15 4 -8 0 -15
-4 -15 -10z"/>
<path d="M2106 3831 c-4 -5 -2 -12 3 -15 5 -4 12 -2 15 3 4 5 2 12 -3 15 -5 4
-12 2 -15 -3z"/>
<path d="M3064 3819 c-4 -8 -3 -9 5 -5 7 4 14 -2 19 -15 6 -15 11 -18 16 -11
4 7 4 12 0 12 -3 0 -1 7 6 15 9 10 9 15 1 15 -6 0 -11 -5 -11 -11 0 -8 -4 -8
-14 0 -11 9 -16 9 -22 0z"/>
<path d="M2575 3779 c-4 -6 -5 -12 -2 -15 2 -3 7 2 10 11 7 17 1 20 -8 4z"/>
<path d="M2073 3705 c0 -8 4 -15 9 -15 5 0 6 -5 2 -12 -4 -7 -3 -8 4 -4 9 5 9
13 2 27 -13 23 -17 24 -17 4z"/>
<path d="M2591 3676 c-8 -10 -9 -16 -1 -21 6 -3 8 -12 4 -18 -3 -7 1 -4 9 5 8
10 18 14 22 10 5 -4 5 -2 1 5 -4 7 -14 9 -24 6 -15 -6 -15 -5 -3 10 7 9 11 17
8 17 -2 0 -10 -6 -16 -14z"/>
<path d="M2070 3640 c0 -5 5 -10 10 -10 6 0 10 5 10 10 0 6 -4 10 -10 10 -5 0
-10 -4 -10 -10z"/>
<path d="M2600 3620 c-13 -8 -13 -10 2 -10 9 0 20 5 23 10 8 13 -5 13 -25 0z"/>
<path d="M3569 3618 c-8 -27 -5 -36 9 -30 10 4 12 7 4 10 -7 2 -10 8 -6 13 3
5 3 9 0 9 -3 0 -6 -1 -7 -2z"/>
<path d="M2598 3593 c6 -2 12 -9 12 -14 0 -6 -4 -8 -8 -5 -5 3 -9 -2 -9 -10 0
-13 2 -13 15 0 15 15 9 37 -11 35 -9 0 -9 -2 1 -6z"/>
<path d="M3570 3560 c0 -5 5 -10 10 -10 6 0 10 5 10 10 0 6 -4 10 -10 10 -5 0
-10 -4 -10 -10z"/>
<path d="M2040 3536 c0 -2 7 -7 16 -10 8 -3 12 -2 9 4 -6 10 -25 14 -25 6z"/>
<path d="M3524 3529 c-3 -6 -2 -15 3 -20 5 -5 9 -1 10 11 2 22 -2 25 -13 9z"/>
<path d="M2690 3520 c0 -5 5 -10 11 -10 5 0 7 5 4 10 -3 6 -8 10 -11 10 -2 0
-4 -4 -4 -10z"/>
<path d="M3498 3478 c-8 -19 17 -33 28 -16 4 6 3 8 -4 4 -6 -3 -12 2 -14 11
-3 16 -4 17 -10 1z"/>
<path d="M2037 3443 c3 -7 6 -13 8 -13 2 0 5 6 8 13 3 8 -1 14 -8 14 -7 0 -11
-6 -8 -14z"/>
<path d="M3420 3320 c6 -11 13 -20 16 -20 2 0 0 9 -6 20 -6 11 -13 20 -16 20
-2 0 0 -9 6 -20z"/>
<path d="M1881 3293 c7 -12 15 -20 18 -17 3 2 -3 12 -13 22 -17 16 -18 16 -5
-5z"/>
<path d="M3384 3263 c2 -10 6 -17 10 -16 15 3 16 11 2 22 -12 10 -14 9 -12 -6z"/>
<path d="M634 3248 c-4 -5 -1 -14 7 -18 14 -9 29 -4 29 10 0 13 -29 20 -36 8z"/>
<path d="M590 3241 c0 -10 19 -25 25 -20 1 2 -3 10 -11 17 -8 7 -14 8 -14 3z"/>
<path d="M707 3239 c7 -7 15 -10 18 -7 3 3 -2 9 -12 12 -14 6 -15 5 -6 -5z"/>
<path d="M1555 3189 c-4 -6 -5 -12 -2 -15 2 -3 7 2 10 11 7 17 1 20 -8 4z"/>
<path d="M585 3160 c-3 -6 1 -7 9 -4 18 7 21 14 7 14 -6 0 -13 -4 -16 -10z"/>
<path d="M1017 3139 c7 -7 15 -10 18 -7 3 3 -2 9 -12 12 -14 6 -15 5 -6 -5z"/>
<path d="M1090 3126 c0 -2 7 -9 15 -16 13 -11 14 -10 9 4 -5 14 -24 23 -24 12z"/>
<path d="M1150 3119 c0 -4 6 -9 13 -12 8 -3 14 0 14 7 0 7 -6 13 -14 13 -7 0
-13 -4 -13 -8z"/>
<path d="M1410 3120 c0 -5 5 -10 11 -10 5 0 7 5 4 10 -3 6 -8 10 -11 10 -2 0
-4 -4 -4 -10z"/>
<path d="M733 3065 c0 -8 4 -12 9 -9 5 3 6 10 3 15 -9 13 -12 11 -12 -6z"/>
<path d="M870 2991 c0 -5 7 -12 16 -15 8 -3 12 -11 8 -17 -5 -8 -3 -9 5 -5 9
6 8 13 -5 27 -19 21 -24 23 -24 10z"/>
<path d="M3135 2950 c-3 -5 -1 -10 4 -10 6 0 11 5 11 10 0 6 -2 10 -4 10 -3 0
-8 -4 -11 -10z"/>
<path d="M3043 2854 c4 -4 3 -12 -3 -18 -6 -8 -3 -12 9 -12 22 0 23 23 2 31
-8 3 -12 3 -8 -1z"/>
<path d="M1301 2731 c-10 -6 -9 -10 3 -14 8 -3 18 -2 21 3 8 13 -9 20 -24 11z"/>
<path d="M1395 2690 c3 -5 8 -10 11 -10 2 0 4 5 4 10 0 6 -5 10 -11 10 -5 0
-7 -4 -4 -10z"/>
<path d="M1550 2616 c0 -8 9 -20 21 -26 19 -11 20 -10 10 9 -15 27 -31 36 -31
17z"/>
<path d="M1603 2589 c-2 -23 3 -25 10 -4 4 8 3 16 -1 19 -4 3 -9 -4 -9 -15z"/>
<path d="M3392 2571 c2 -7 7 -12 11 -12 12 1 9 15 -3 20 -7 2 -11 -2 -8 -8z"/>
<path d="M1646 2542 c-3 -5 1 -9 9 -9 8 0 12 4 9 9 -3 4 -7 8 -9 8 -2 0 -6 -4
-9 -8z"/>
<path d="M3473 2535 c-3 -9 -3 -18 -1 -21 3 -3 8 4 11 16 6 23 -1 27 -10 5z"/>
<path d="M1750 2521 c0 -6 4 -12 8 -15 5 -3 9 1 9 9 0 8 -4 15 -9 15 -4 0 -8
-4 -8 -9z"/>
<path d="M1819 2480 c-1 -5 -2 -14 -3 -19 0 -5 -4 -13 -8 -16 -4 -4 -3 -15 2
-25 5 -10 6 -20 3 -24 -3 -3 -1 -6 5 -6 14 0 15 10 3 30 -6 8 -7 19 -3 25 8
13 13 45 7 45 -3 0 -6 -4 -6 -10z"/>
<path d="M1740 2180 c-11 -7 -11 -10 -2 -10 7 0 11 -4 7 -9 -3 -5 -2 -12 3
-15 4 -2 8 6 8 20 0 13 0 24 0 24 -1 0 -8 -5 -16 -10z"/>
<path d="M2522 2053 c-6 -2 -10 -9 -6 -14 3 -5 1 -9 -5 -9 -5 0 -12 5 -14 10
-3 6 -4 5 -3 -2 4 -21 24 -20 36 1 6 12 9 21 8 20 -2 0 -9 -3 -16 -6z"/>
<path d="M2556 2047 c-16 -12 -16 -13 2 -13 10 0 19 6 19 13 0 7 -1 13 -2 13
-1 0 -9 -6 -19 -13z"/>
<path d="M2789 2047 c6 -8 9 -17 6 -21 -3 -3 0 -2 6 3 12 10 4 31 -13 31 -7 0
-7 -4 1 -13z"/>
<path d="M3860 2046 c0 -2 7 -7 16 -10 8 -3 12 -2 9 4 -6 10 -25 14 -25 6z"/>
<path d="M2375 1880 c3 -5 8 -10 11 -10 2 0 4 5 4 10 0 6 -5 10 -11 10 -5 0
-7 -4 -4 -10z"/>
<path d="M3587 1856 c-3 -8 0 -20 8 -26 18 -15 26 1 10 23 -10 15 -14 15 -18
3z"/>
<path d="M1575 1800 c-3 -5 -1 -10 4 -10 6 0 11 5 11 10 0 6 -2 10 -4 10 -3 0
-8 -4 -11 -10z"/>
<path d="M3980 1800 c0 -5 5 -10 10 -10 6 0 10 5 10 10 0 6 -4 10 -10 10 -5 0
-10 -4 -10 -10z"/>
<path d="M3998 1773 c7 -3 16 -2 19 1 4 3 -2 6 -13 5 -11 0 -14 -3 -6 -6z"/>
<path d="M4005 1751 c-6 -11 13 -26 22 -17 4 3 0 6 -8 6 -11 0 -11 2 1 10 9 6
10 10 3 10 -6 0 -14 -4 -18 -9z"/>
<path d="M1426 1439 c2 -4 -2 -10 -8 -12 -8 -4 -9 -6 -2 -6 6 -1 17 5 23 12 8
10 7 14 -4 14 -8 0 -12 -4 -9 -8z"/>
<path d="M1915 1367 c-13 -10 -15 -16 -6 -21 7 -5 15 -5 18 -2 4 3 0 6 -7 6
-9 0 -7 5 6 15 10 8 16 15 13 15 -3 0 -13 -6 -24 -13z"/>
<path d="M1826 1281 c-3 -5 1 -11 9 -15 8 -3 15 -1 15 4 0 13 -18 22 -24 11z"/>
<path d="M1296 1198 c3 -4 11 -5 19 -1 21 7 19 12 -4 10 -11 0 -18 -5 -15 -9z"/>
<path d="M1190 1043 c0 -6 6 -16 14 -22 10 -8 16 -8 25 3 9 11 8 15 -3 19 -11
4 -13 1 -10 -11 5 -14 3 -13 -10 2 -9 11 -16 15 -16 9z"/>
<path d="M1587 1019 c7 -7 15 -10 18 -7 3 3 -2 9 -12 12 -14 6 -15 5 -6 -5z"/>
<path d="M1430 839 c0 -5 5 -7 10 -4 6 3 10 8 10 11 0 2 -4 4 -10 4 -5 0 -10
-5 -10 -11z"/>
<path d="M1385 829 c-4 -6 -5 -12 -2 -15 2 -3 7 2 10 11 7 17 1 20 -8 4z"/>
<path d="M1086 811 c-4 -5 -2 -12 3 -15 5 -4 12 -2 15 3 4 5 2 12 -3 15 -5 4
-12 2 -15 -3z"/>
<path d="M1027 725 c3 -8 9 -12 14 -9 12 7 11 11 -5 17 -10 4 -13 1 -9 -8z"/>
<path d="M1020 689 c0 -5 5 -7 10 -4 6 3 10 8 10 11 0 2 -4 4 -10 4 -5 0 -10
-5 -10 -11z"/>
<path d="M955 660 c-3 -5 -1 -10 4 -10 6 0 11 5 11 10 0 6 -2 10 -4 10 -3 0
-8 -4 -11 -10z"/>
<path d="M965 630 c-3 -6 1 -7 9 -4 18 7 21 14 7 14 -6 0 -13 -4 -16 -10z"/>
<path d="M1147 619 c7 -7 15 -10 18 -7 3 3 -2 9 -12 12 -14 6 -15 5 -6 -5z"/>
<path d="M910 386 c0 -2 7 -7 16 -10 8 -3 12 -2 9 4 -6 10 -25 14 -25 6z"/>
</g>
</svg>
