<?xml version="1.0" encoding="utf-8"?>
<!-- Generator: Adobe Illustrator 22.0.1, SVG Export Plug-In . SVG Version: 6.00 Build 0)  -->
<svg version="1.1" id="Camada_1" xmlns="http://www.w3.org/2000/svg" xmlns:xlink="http://www.w3.org/1999/xlink" x="0px" y="0px"
	 viewBox="0 0 259.8 74.6" style="enable-background:new 0 0 259.8 74.6;" xml:space="preserve">
<style type="text/css">
	.st0{fill:#FFFFFF;}
</style>
<g>
	<g>
		<path class="st0" d="M89.5,52.5l-9-17.9h8.4l5.3,12.1l5.3-12.1h8.4l-9,17.9H89.5z"/>
		<path class="st0" d="M109.1,52.5V34.6h18.5v4.7h-11.1v1.8h10.8v4.7h-10.8v2h11.1v4.7H109.1z"/>
		<path class="st0" d="M147.2,52.5l-9-9.1v9.1h-7.4V34.6h7.6l8.5,8.5v-8.5h7.4v17.9H147.2z"/>
		<path class="st0" d="M163.4,52.5V39.3h-6.5v-4.7h20.4v4.7h-6.5v13.2H163.4z"/>
		<path class="st0" d="M193.3,52.5l-3.4-5.6h-2.7v5.6h-7.4V34.6h13c5.7,0,8.8,2.8,8.8,6.2c0,3.1-2.4,4.7-4.4,5.4l4.4,6.3H193.3z
			 M194.2,40.7c0-1-1.2-1.4-2.4-1.4h-4.5v2.8h4.5C193,42.1,194.2,41.7,194.2,40.7z"/>
		<path class="st0" d="M203.4,43.6c0-5.5,5.8-9.3,13.3-9.3c7.5,0,13.3,3.8,13.3,9.3c0,5.5-5.8,9.3-13.3,9.3
			C209.2,52.9,203.4,49.1,203.4,43.6z M222.5,43.6c0-2.5-2.3-4.5-5.8-4.5c-3.5,0-5.8,2-5.8,4.5s2.3,4.5,5.8,4.5
			C220.2,48.1,222.5,46.1,222.5,43.6z"/>
		<path class="st0" d="M249,52.5l-9-9.1v9.1h-7.4V34.6h7.6l8.5,8.5v-8.5h7.4v17.9H249z"/>
	</g>
	<g>
		<g>
			<path class="st0" d="M94.1,61.9L80.5,34.5h8.4l5.3,12.1l5.3-12.1h8.4L94.1,61.9z"/>
		</g>
	</g>
	<g>
		<rect x="6.9" y="9.3" class="st0" width="73.2" height="9.3"/>
		<g>
			<g>
				<polygon class="st0" points="74.4,17 74.4,17 43.6,58.3 12.7,17 12.7,17 7,9.3 1.1,17.1 43.5,73.8 85.9,17.1 80.1,9.4 				"/>
			</g>
		</g>
		<polygon class="st0" points="43.5,47.4 26.6,24.7 60.5,24.7 		"/>
		<polygon class="st0" points="43.5,58.2 12.7,17 12.7,17 7,9.3 1.1,17.1 43.5,73.8 43.5,73.7 		"/>
	</g>
</g>
</svg>
